<svg xmlns="http://www.w3.org/2000/svg" width="24" height="24" viewBox="0 0 24 24" fill="none" stroke="currentColor">
  <path d="M5.25 4a1 1 0 0 1 1 -1h2.5a1 1 0 0 1 1 1v16a1 1 0 0 1 -1 1h-2.5a1 1 0 0 1 -1 -1z" stroke-width="1" stroke-linecap="round" stroke-linejoin="round" vector-effect="non-scaling-stroke"/>
  <path d="M14.25 4a1 1 0 0 1 1 -1h2.5a1 1 0 0 1 1 1v16a1 1 0 0 1 -1 1h-2.5a1 1 0 0 1 -1 -1z" stroke-width="1" stroke-linecap="round" stroke-linejoin="round" vector-effect="non-scaling-stroke"/>
</svg>
